# xmcd
#
# Track frame offsets: 
#        150
#        15022
#        33238
#        46498
#        66460
#        89465
#        108240
#        130972
#        153149
#        172221
#        191988
#        208480
#        219413
#        235746
#        251589
#        268947
#        299150
#
# Disc length: 4281 seconds
#
# Revision: 1
# Processed by: cddbd v1.5.2PL0 Copyright (c) Steve Scherf et al.
# Submitted via: ExactAudioCopy v0.99pb5
#
DISCID=0610b711
DTITLE=Granny's Bathwater - Granny's Bathwater
DYEAR=2002
DGENRE=Southern Rock
TTITLE0=Then We Have It
TTITLE1=You'll Know Who You Are
TTITLE2=Micheal My Friend
TTITLE3=Rose's Last Night's Dream
TTITLE4=Kansas City
TTITLE5=Silent Treatment
TTITLE6=Roach
TTITLE7=Refried Women
TTITLE8=Ridin Thumb
TTITLE9=Milk Cow Blues
TTITLE10=Your Baby's Stash
TTITLE11=Ragged
TTITLE12=On My Own
TTITLE13=Baby Goodbye
TTITLE14=Can You Feel It
TTITLE15=Storm
TTITLE16=Final Ride (Micheal's Goodbye)
EXTD=
EXTT0=
EXTT1=
EXTT2=
EXTT3=
EXTT4=
EXTT5=
EXTT6=
EXTT7=
EXTT8=
EXTT9=
EXTT10=
EXTT11=
EXTT12=
EXTT13=
EXTT14=
EXTT15=
EXTT16=
PLAYORDER=
